HIERARCHY
ROOT Hips
{
	OFFSET	0.00	0.00	0.00
	CHANNELS 6 Xposition Yposition Zposition Zrotation Xrotation Yrotation
	JOINT Spine
	{
		OFFSET	 0.00	0.01	 0.00
		CHANNELS 3 Zrotation Xrotation Yrotation
		JOINT Spine1
		{
			OFFSET	 0.00	 2.45913012437421	 0.00
			CHANNELS 3 Zrotation Xrotation Yrotation
            JOINT Neck
            {
                OFFSET	 0.00	 2.48462964506057	 0.00
                CHANNELS 3 Zrotation Xrotation Yrotation
                JOINT Head
                {
                    OFFSET	 0.00	 0.927524780924562	 0.00
                    CHANNELS 3 Zrotation Xrotation Yrotation
                    End Site 
                    {
                        OFFSET	 0.00	 1.14999962169752	 0.00
                    }
                }
            }
			JOINT LeftShoulder
			{
				OFFSET	 0.00	 2.48462964506057	 0.00
				CHANNELS 3 Zrotation Xrotation Yrotation
				JOINT LeftUpArm
				{
					OFFSET	 0.00	 1.24881979654096	 0.00
					CHANNELS 3 Zrotation Xrotation Yrotation
					JOINT LeftForeArm
					{
						OFFSET	 0.00	2.59758046908119	 0.00
						CHANNELS 3 Zrotation Xrotation Yrotation
						JOINT LeftHand
						{
							OFFSET	 0.00	2.45542024364365	 0.00
							CHANNELS 3 Zrotation Xrotation Yrotation
							JOINT LeftHandThumb 
							{
								OFFSET	 0.00	0.00	 0.00
								CHANNELS 3 Zrotation Xrotation Yrotation
								End Site
								{
									OFFSET	 0.00	0.00	1.00000003353624
								}
							}
							JOINT L_Wrist_End 
							{
								OFFSET	 0.00	0.99999967115358	 0.00
								CHANNELS 3 Zrotation Xrotation Yrotation
								End Site 
								{
									OFFSET	 0.00	 0.00	 0.00
								}
							}
						}
					}
				}
			}
			JOINT RightShoulder
			{
				OFFSET	 0.00	 2.48462964506057	 0.00
				CHANNELS 3 Zrotation Xrotation Yrotation
				JOINT RightUpArm
				{
					OFFSET	 0.00	 1.24881979654096	 0.00
					CHANNELS 3 Zrotation Xrotation Yrotation
					JOINT RightForeArm
					{
						OFFSET	 0.00	2.59758046908119	 0.00
						CHANNELS 3 Zrotation Xrotation Yrotation
						JOINT RightHand
						{
							OFFSET	 0.00	2.45542024364365	 0.00
							CHANNELS 3 Zrotation Xrotation Yrotation
							JOINT RightHandThumb 
							{
								OFFSET	 0.00	0.00	 0.00
								CHANNELS 3 Zrotation Xrotation Yrotation
								End Site
								{
									OFFSET	 0.00	0.00	1.00000003353624
								}
							}
							JOINT R_Wrist_End 
							{
								OFFSET	 0.00	0.99999967115358	 0.00
								CHANNELS 3 Zrotation Xrotation Yrotation
								End Site 
								{
									OFFSET	 0.00	 0.00	 0.00
								}
							}
						}
					}
				}
			}
		}
	}
	JOINT LeftUpLeg
	{
		OFFSET	 1.2719394002717	 0.00	 0.00
		CHANNELS 3 Zrotation Xrotation Yrotation
		JOINT LeftLowLeg
		{
			OFFSET	 0.00	-4.3429100912261	 0.00
			CHANNELS 3 Zrotation Xrotation Yrotation
			JOINT LeftFoot
			{
				OFFSET	 0.00	-4.48767017425826	 0.00
				CHANNELS 3 Zrotation Xrotation Yrotation
				JOINT LeftToeBase
                {
                    OFFSET	 0.00	0.00	 1.51507020887566
                    CHANNELS 3 Zrotation Xrotation Yrotation
                    End Site 
                    {
                        OFFSET	 0.00	0.00	 0.75000010571191
                    }
                }
			}
		}
	}
	JOINT RightUpLeg
	{
		OFFSET	 -1.2719393604653	 0.00	 0.00
		CHANNELS 3 Zrotation Xrotation Yrotation
		JOINT RightLowLeg
		{
			OFFSET	 0.00	-4.3429100912261	 0.00
			CHANNELS 3 Zrotation Xrotation Yrotation
			JOINT RightFoot
			{
				OFFSET	 0.00	-4.48767017425826	 0.00
				CHANNELS 3 Zrotation Xrotation Yrotation
				JOINT RightToeBase
                {
                    OFFSET	 0.00	0.00	 1.51507020887566
                    CHANNELS 3 Zrotation Xrotation Yrotation
                    End Site 
                    {
                        OFFSET	 0.00	0.00	 0.749999965609858
                    }
                }   
			}
		}
	}
}
MOTION 
Frames:	18 
Frame Time: 0.02 
  4.042420043945312 -9.604140014648438 9.212830200195313 -29.3882 81.7566 860.484 0.802037 -6.91567 -4.01822 9.37094 -10.5012 -0.266889 -39.3952 49.345 396.914 70.8182 -84.6524 -295.162 -124.9254 -8.29407 10.9293 -47.6668 -12.379 76.0462 0.0 39.7935 0.0 26.6345 1.92894 -12.4448 0.0 0.0 0.0 0.0 0.0 0.0 119.5726 -5.83243 -17.1014 45.2447 -15.5105 -66.7599 0.0 39.1331 0.0 -49.7848 -9.69084 25.8301 0.0 0.0 0.0 0.0 0.0 0.0 -5.64146 -5.66941 -0.156661 0.0 3.57359 0.0 -6.78252 1.5045004 15.6512 0.0 -32.0542 0.0 2.84438 -18.6125 6.05607 0.0 62.9504 0.0 11.6427 18.45236 3.19265 0.0 -51.6153 0.0 
  4.147940063476563 -9.516840209960938 9.217239990234376 -26.2298 81.4999 858.249 1.20819 -7.08863 -4.51001 9.20785 -10.1719 -0.889688 -39.3221 49.5695 396.654 72.0172 -84.6673 -293.715 -124.8927 -8.07112 11.116 -48.2088 -12.3113 75.6782 0.0 39.3757 0.0 26.6344 1.92909 -12.4441 0.0 0.0 0.0 0.0 0.0 0.0 119.645996 -6.08246 -16.6663 45.1219 -15.5557 -66.5529 0.0 38.8219 0.0 -49.7453 -9.20049 25.6262 0.0 0.0 0.0 0.0 0.0 0.0 -5.50366 -4.71607 -0.834524 0.0 3.51013 0.0 -6.73974 1.1223001 15.5962 0.0 -31.4053 0.0 3.53194 -20.3243 5.8723 0.0 62.5733 0.0 11.6181 14.484402 2.0308 0.0 -51.4684 0.0 
  4.251789855957031 -9.438040161132813 9.222239990234375 -23.2606 81.2438 856.42 1.31831 -7.10542 -5.08545 9.37007 -10.0511 -1.53039 -39.5551 49.7359 396.811 73.0907 -84.6734 -292.63 -124.8669 -8.15316 11.4072 -48.6824 -11.9975 75.6002 0.0 39.1233 0.0 26.6342 1.92923 -12.4435 0.0 0.0 0.0 0.0 0.0 0.0 119.6062 -6.27225 -16.3089 45.0981 -15.6862 -66.1781 0.0 38.5128 0.0 -49.5542 -8.87965 25.6226 0.0 0.0 0.0 0.0 0.0 0.0 -5.2716 -3.8267 -1.64967 0.0 3.48929 0.0 -6.74123 0.80720043 15.3392 0.0 -31.3728 0.0 4.34181 -21.8343 5.86542 0.0 61.3328 0.0 10.9072 10.65535 0.625895 0.0 -51.0404 0.0 
  4.3366000366210935 -9.388779907226562 9.2289501953125 -17.2795 81.3853 852.608 0.521786 -5.64327 -6.10036 10.6461 -10.8315 -2.39563 -39.7416 49.9959 396.752 72.454 -84.7287 -293.23 -125.166595 -8.19384 11.3762 -49.0169 -12.1189 75.5865 0.0 39.0365 0.0 26.6338 1.92954 -12.442 0.0 0.0 0.0 0.0 0.0 0.0 119.2353 -6.47787 -16.128 45.2018 -15.8082 -65.6263 0.0 38.2387 0.0 -49.5833 -8.83406 25.2944 0.0 0.0 0.0 0.0 0.0 0.0 -4.86793 -2.90969 -2.99448 0.0 4.16367 0.0 -6.85551 0.5024004 14.4483 0.0 -31.3017 0.0 5.16357 -22.6434 5.52557 0.0 59.2454 0.0 10.5657 7.21192 -0.773807 0.0 -49.4164 0.0 
  4.435710144042969 -9.310050048828124 9.233880004882813 -15.6929 81.0275 852.278 0.296593 -5.72838 -6.48502 11.2989 -10.7359 -2.793 -39.9161 50.2154 396.741 73.6519 -84.8165 -292.212 -125.5111 -8.27984 11.4767 -49.1545 -11.9707 75.6496 0.0 39.0518 0.0 26.6337 1.92969 -12.4413 0.0 0.0 0.0 0.0 0.0 0.0 119.0166 -6.67145 -15.7188 45.217 -16.0765 -65.1275 0.0 37.9225 0.0 -49.517 -8.639 25.222 0.0 0.0 0.0 0.0 0.0 0.0 -4.65091 -2.27604 -3.39719 0.0 4.22726 0.0 -6.88075 0.20079994 13.7779 0.0 -31.0038 0.0 6.08747 -23.8987 6.41206 0.0 56.305 0.0 9.70702 4.7281 -2.12114 0.0 -47.255 0.0 
  4.533179931640625 -9.233040161132813 9.234940185546876 -14.4069 80.7087 852.272 -0.0297068 -5.85275 -6.76766 11.9266 -10.4593 -3.09019 -39.5454 50.4028 396.18 74.8352 -84.8474 -291.128 -125.8086 -8.22793 11.5426 -49.3265 -11.9342 75.4733 0.0 39.073 0.0 26.6335 1.92985 -12.4407 0.0 0.0 0.0 0.0 0.0 0.0 118.8017 -6.74438 -15.422 45.3154 -16.2786 -64.5174 0.0 37.6979 0.0 -49.1877 -8.60396 25.4001 0.0 0.0 0.0 0.0 0.0 0.0 -4.44992 -1.68129 -3.36092 0.0 4.31097 0.0 -5.72928 -0.021300316 13.0191 0.0 -29.9503 0.0 7.00915 -24.9987 7.78206 0.0 52.7342 0.0 9.90387 3.7889996 -3.30511 0.0 -45.649002 0.0 
  4.627009887695312 -9.156589965820313 9.233870239257813 -12.9481 80.3987 852.154 -0.330864 -5.8717 -6.92669 12.5547 -10.2027 -3.2591 -39.0039 50.5186 395.437 76.0397 -84.9236 -290.105 -126.0909 -8.18724 11.5948 -49.4052 -11.7813 75.4508 0.0 39.0679 0.0 26.6333 1.93002 -12.4399 0.0 0.0 0.0 0.0 0.0 0.0 118.5678 -6.8448 -15.2603 45.4424 -16.3373 -63.9749 0.0 37.563 0.0 -48.9476 -8.68136 25.2734 0.0 0.0 0.0 0.0 0.0 0.0 -4.22484 -1.12551 -3.4863 0.0 4.4942 0.0 -6.50662 -0.43630028 11.7732 0.0 -30.0847 0.0 7.88119 -25.8698 9.28724 0.0 48.5946 0.0 10.4419 3.7061996 -4.73978 0.0 -44.4989 0.0 
  4.721319885253906 -9.079849853515626 9.230089721679688 -11.8664 80.111 852.51 -0.669081 -6.0536 -7.0477 13.0672 -9.66847 -3.42042 -38.1967 50.4981 394.471 77.3161 -85.0147 -289.02 -126.3701 -8.13764 11.601 -49.3887 -11.5128 75.582 0.0 39.0811 0.0 26.6331 1.93016 -12.4392 0.0 0.0 0.0 0.0 0.0 0.0 118.3893 -6.88108 -15.2721 45.5547 -16.1493 -63.5828 0.0 37.5256 0.0 -48.9799 -8.79591 25.4779 0.0 0.0 0.0 0.0 0.0 0.0 -4.05474 -0.612041 -3.93052 0.0 4.71081 0.0 -6.7552 -0.7369003 11.0923 0.0 -30.1293 0.0 8.579 -26.5294 10.7902 0.0 44.0106 0.0 11.1218 4.0228004 -6.23564 0.0 -43.2892 0.0 
  4.8168798828125 -9.00208984375 9.225469970703125 -10.0244 79.8772 852.228 -0.968414 -6.18886 -7.15755 13.5657 -8.94346 -3.60476 -37.2853 50.3743 393.391 79.6474 -85.175 -286.858 -126.6856 -8.07894 11.3507 -49.257 -11.3062 76.105 0.0 39.1416 0.0 26.6329 1.93035 -12.4384 0.0 0.0 0.0 0.0 0.0 0.0 118.173904 -6.73893 -14.8156 45.6287 -16.3291 -63.465 0.0 37.5338 0.0 -48.7914 -9.13141 25.8699 0.0 0.0 0.0 0.0 0.0 0.0 -3.80108 -0.00586985 -4.47184 0.0 5.01694 0.0 -6.74804 -1.0972004 10.4009 0.0 -29.656 0.0 9.12516 -26.8019 12.093 0.0 38.9776 0.0 11.9035 4.6742 -7.56377 0.0 -42.4059 0.0 
  4.9139401245117185 -8.922429809570312 9.220139770507812 -8.60975 79.6297 852.488 -1.30159 -6.37818 -7.20404 14.0558 -8.3048 -3.70504 -36.3587 50.3874 392.196 82.5639 -85.3269 -284.198 -127.005005 -8.04408 11.2031 -49.1817 -11.0817 75.9241 0.0 39.0893 0.0 26.6327 1.93052 -12.4376 0.0 0.0 0.0 0.0 0.0 0.0 118.0397 -6.6521 -14.9791 45.6714 -16.1367 -63.0083 0.0 37.6935 0.0 -48.7889 -9.66141 26.0696 0.0 0.0 0.0 0.0 0.0 0.0 -3.5476 0.516337 -5.10065 0.0 5.34732 0.0 -6.28325 -1.3703003 9.85839 0.0 -29.6835 0.0 9.42587 -26.9896 13.1088 0.0 33.8389 0.0 12.3311 5.2958 -8.56101 0.0 -41.5589 0.0 
  5.0105899047851565 -8.841370239257813 9.215 -7.45332 79.2882 852.994 -1.54876 -6.73391 -7.19625 14.4602 -7.59197 -3.77547 -35.534 50.4438 391.142 86.8336 -85.4068 -280.22 -127.2118 -7.80697 11.8029 -49.1767 -10.3795 75.2953 0.0 39.2822 0.0 149.751 -20.8303 -21.5748 0.0 0.0 0.0 0.0 0.0 0.0 117.9939 -6.39852 -16.6888 45.9038 -14.7848 -61.9205 0.0 37.8942 0.0 -48.7952 -10.9038 26.7098 0.0 0.0 0.0 0.0 0.0 0.0 -3.23692 0.924695 -5.83717 0.0 5.72546 0.0 -6.38788 -1.8045006 9.2992 0.0 -29.5831 0.0 9.68042 -27.2164 14.0172 0.0 28.7967 0.0 12.982 6.2254696 -9.13488 0.0 -41.5014 0.0 
  5.103410034179688 -8.758829956054688 9.209949951171875 -5.57188 79.18 852.719 -1.93054 -6.44901 -7.00873 15.3556 -7.22213 -3.58551 -35.1348 49.9858 390.502 89.6511 -85.9528 -278.098 -127.2617 -7.71896 10.8395 -48.8418 -10.9676 75.0847 0.0 40.713 0.0 150.035 -20.0815 -21.3497 0.0 0.0 0.0 0.0 0.0 0.0 117.5793 -6.54231 -14.8117 45.5327 -15.9919 -62.6533 0.0 37.9128 0.0 -48.682 -10.508 26.5848 0.0 0.0 0.0 0.0 0.0 0.0 -2.98328 1.51882 -6.11051 0.0 6.19132 0.0 -6.07282 -2.0517006 8.53752 0.0 -29.993599 0.0 9.6656 -27.2181 14.3809 0.0 23.927 0.0 13.5849 7.73468 -9.045 0.0 -41.6246 0.0 
  5.200599975585938 -8.684979858398437 9.200189819335938 1.58833 79.7258 847.418 -2.12443 -4.98699 -6.98427 15.7308 -6.97213 -3.57365 -34.1626 49.7918 389.494 90.6519 -85.9725 -277.391 -127.2818 -7.82089 10.6801 -48.8927 -10.8212 75.0146 0.0 40.6899 0.0 149.469 -20.7512 -21.5982 0.0 0.0 0.0 0.0 0.0 0.0 117.4925 -6.27461 -15.1895 45.5096 -15.6856 -62.5562 0.0 38.0517 0.0 -48.6275 -10.7981 27.1562 0.0 0.0 0.0 0.0 0.0 0.0 -2.47417 3.18665 -6.53848 0.0 6.80788 0.0 -6.37576 -2.6695995 7.39818 0.0 -29.8026 0.0 9.66021 -26.0313 14.0885 0.0 19.3297 0.0 13.1308 9.02231 -8.70422 0.0 -41.0744 0.0 
  5.29375 -8.597680053710938 9.192440185546875 1.88618 79.5522 848.62 -2.28642 -5.0284 -6.75049 15.9351 -6.71356 -3.35474 -33.2797 49.7898 388.438 93.9754 -85.9848 -274.368 -127.483795 -7.8374 10.8144 -48.8329 -10.5492 74.6546 0.0 40.6035 0.0 151.741 -20.1455 -21.1459 0.0 0.0 0.0 0.0 0.0 0.0 117.5236 -6.08544 -15.622 45.2054 -15.2953 -62.4797 0.0 38.2914 0.0 -48.3175 -10.8631 26.8855 0.0 0.0 0.0 0.0 0.0 0.0 -2.27686 3.54071 -6.95149 0.0 7.30946 0.0 -6.17497 -2.8817005 6.68996 0.0 -30.0543 0.0 9.46069 -26.0883 13.9054 0.0 14.8453 0.0 13.4879 9.732571 -7.73087 0.0 -41.2808 0.0 
  5.389210205078125 -8.504019775390624 9.182379760742187 2.18557 79.4828 849.857 -2.40735 -5.03486 -6.54946 16.0488 -6.50323 -3.16629 -32.5055 49.7665 387.477 96.2245 -86.0412 -272.44 -127.566895 -7.87408 10.7291 -48.8683 -10.588 74.1734 0.0 40.5505 0.0 154.004 -20.5093 -20.9279 0.0 0.0 0.0 0.0 0.0 0.0 117.400604 -6.0311 -15.4626 44.8333 -15.0598 -63.451 0.0 38.479 0.0 -48.7317 -10.6161 24.511 0.0 0.0 0.0 0.0 0.0 0.0 -2.16048 3.97784 -7.36219 0.0 7.85139 0.0 -6.11684 -3.0956993 5.9464 0.0 -30.1777 0.0 9.15635 -25.9416 13.6122 0.0 10.7009 0.0 13.6313 9.185801 -6.68404 0.0 -40.6764 0.0 
  5.485599975585938 -8.40760986328125 9.170650024414062 2.02784 79.4209 851.386 -2.5199 -5.0347 -6.2863 16.119 -6.38824 -2.89597 -32.0167 49.5994 386.916 96.438 -86.1625 -272.614 -127.6175 -7.93957 10.5702 -48.9138 -10.828 73.4555 0.0 40.5904 0.0 154.368 -21.4323 -21.0771 0.0 0.0 0.0 0.0 0.0 0.0 117.4337 -5.83988 -15.484 44.3066 -14.843 -64.2472 0.0 38.9158 0.0 -49.0687 -10.6251 24.9773 0.0 0.0 0.0 0.0 0.0 0.0 -2.09197 4.34826 -7.58542 0.0 8.45186 0.0 -6.15064 -3.2807999 5.12615 0.0 -30.2655 0.0 8.92043 -25.9312 13.1715 0.0 7.22659 0.0 13.7734 8.325951 -5.7884 0.0 -39.8956 0.0 
  5.590670166015625 -8.310020141601562 9.160440063476562 1.47432 79.2803 853.42 -2.82667 -5.17025 -6.12109 16.4561 -6.34205 -2.69295 -31.5792 49.5361 386.301 96.1879 -86.3152 -273.144 -127.724304 -7.99968 10.4882 -48.9977 -11.0084 73.0752 0.0 40.5929 0.0 153.115 -21.8435 -21.3552 0.0 0.0 0.0 0.0 0.0 0.0 117.3396 -5.65514 -15.8211 43.8963 -14.3353 -65.1607 0.0 39.3196 0.0 -49.1375 -10.9693 24.1026 0.0 0.0 0.0 0.0 0.0 0.0 -1.92836 4.53721 -7.60366 0.0 9.25615 0.0 -6.41488 -3.4221 3.93892 0.0 -30.217499 0.0 8.72688 -25.9612 12.4631 0.0 4.29242 0.0 13.9053 7.50484 -5.15531 0.0 -39.7794 0.0 
  5.698779907226562 -8.206810302734375 9.147839965820312 0.941614 79.2188 855.341 -3.13169 -5.34858 -5.90975 16.7898 -6.15238 -2.46706 -31.0172 49.2933 385.557 94.7041 -86.5712 -274.973 -127.7995 -8.0254 10.4952 -49.1826 -11.187 72.4456 0.0 40.5396 0.0 151.267 -21.0937 -21.4452 0.0 0.0 0.0 0.0 0.0 0.0 117.226 -5.50097 -15.9131 43.4359 -13.8903 -66.1619 0.0 39.7421 0.0 -49.2313 -11.2638 24.4666 0.0 0.0 0.0 0.0 0.0 0.0 -1.82073 4.75413 -7.68123 0.0 10.1883 0.0 -6.61385 -3.4657001 2.80022 0.0 -30.32 0.0 8.57586 -25.9783 11.9883 0.0 2.30957 0.0 14.3001 6.4520197 -4.94229 0.0 -38.947098 0.0 
